<mxfile host="65bd71144e">
    <diagram id="9mh1nsSnM0l1HQ3Pd-zj" name="Página-1">
        <mxGraphModel dx="320" dy="198" grid="1" gridSize="10" guides="1" tooltips="1" connect="1" arrows="1" fold="1" page="1" pageScale="1" pageWidth="827" pageHeight="1169" math="0" shadow="0">
            <root>
                <mxCell id="0"/>
                <mxCell id="1" parent="0"/>
                <mxCell id="2" value="Constructor&lt;br&gt;comproba()&lt;br&gt;punto_algo()" style="rounded=0;whiteSpace=wrap;html=1;align=left;strokeColor=#000000;fillColor=#525454;fontColor=#ffffff;" vertex="1" parent="1">
                    <mxGeometry x="330" y="150" width="120" height="60" as="geometry"/>
                </mxCell>
                <mxCell id="3" value="Usuario&lt;br&gt;Correo electrónico" style="rounded=0;whiteSpace=wrap;html=1;align=left;strokeColor=#000000;fillColor=#525454;fontColor=#ffffff;" vertex="1" parent="1">
                    <mxGeometry x="330" y="100" width="120" height="50" as="geometry"/>
                </mxCell>
                <mxCell id="4" value="Email" style="rounded=0;whiteSpace=wrap;html=1;fillColor=#f0a30a;fontColor=#000000;strokeColor=#000000;" vertex="1" parent="1">
                    <mxGeometry x="330" y="70" width="120" height="30" as="geometry"/>
                </mxCell>
            </root>
        </mxGraphModel>
    </diagram>
</mxfile>